# xmcd
#
# Track frame offsets:
# 150
# 15290
# 32390
# 51435
# 63927
# 75265
# 92502
# 121302
# 141075
# 163455
# 176652
# 194052
# 208972
#
# Disc length: 3148 seconds
#
#
# Revision: 0
# Processed by: cddbd v1.5.2PL0 Copyright (c) Steve Scherf et al.
# Submitted via: Nero 7, 0, 0, 0 
#
DISCID=ae0c4a0d
DTITLE=Sax Gordon - You Knock Me Out
DYEAR=2000
DGENRE=blues
TTITLE0=90 MPH
TTITLE1=Mishnock Rock
TTITLE2=Lonely for You
TTITLE3=You Knock Me Out
TTITLE4=Speed Rack
TTITLE5=BY-YA
TTITLE6=Lorenzo Leaps In
TTITLE7=That Little Town Rocks
TTITLE8=Tino's Dream
TTITLE9=Big Mouth
TTITLE10=Bug Hunt
TTITLE11=Twenty Dollar Gig
TTITLE12=Crawling Home
EXTD=
EXTT0=
EXTT1=
EXTT2=
EXTT3=
EXTT4=
EXTT5=
EXTT6=
EXTT7=
EXTT8=
EXTT9=
EXTT10=
EXTT11=
EXTT12=
PLAYORDER=
